SplineFontDB: 3.0
FontName: NimboTen
FullName: Nimbo Ten
FamilyName: NimboTen
Weight: Regular
Copyright: Created by trashman with FontForge 2.0 (http://fontforge.sf.net)
UComments: "2010-10-30: Created." 
Version: 0.1
ItalicAngle: 0
UnderlinePosition: -100
UnderlineWidth: 50
Ascent: 680
Descent: 320
LayerCount: 3
Layer: 0 0 "Back"  1
Layer: 1 0 "Fore"  0
Layer: 2 0 "backup"  0
NeedsXUIDChange: 1
XUID: [1021 658 797806517 11461781]
OS2Version: 0
OS2_WeightWidthSlopeOnly: 0
OS2_UseTypoMetrics: 1
CreationTime: 1288472788
ModificationTime: 1288686781
OS2TypoAscent: 0
OS2TypoAOffset: 1
OS2TypoDescent: 0
OS2TypoDOffset: 1
OS2TypoLinegap: 0
OS2WinAscent: 0
OS2WinAOffset: 1
OS2WinDescent: 0
OS2WinDOffset: 1
HheadAscent: 0
HheadAOffset: 1
HheadDescent: 0
HheadDOffset: 1
OS2Vendor: 'PfEd'
MarkAttachClasses: 1
DEI: 91125
Encoding: UnicodeBmp
UnicodeInterp: none
NameList: Adobe Glyph List
DisplaySize: -48
AntiAlias: 1
FitToEm: 1
WinInfo: 84 12 4
BeginPrivate: 9
BlueValues 7 [-12 0]
OtherBlues 2 []
BlueScale 8 0.039625
BlueShift 1 7
BlueFuzz 1 0
StdHW 4 [36]
StemSnapH 28 [20 25 30 36 44 48 63 79 86]
StdVW 4 [66]
StemSnapV 28 [65 66 68 71 72 75 78 80 84]
EndPrivate
BeginChars: 65537 64

StartChar: a
Encoding: 97 97 0
Width: 364
VWidth: 0
Flags: W
HStem: -11 44<78.5 176.22 265 334.403> 340 33<124.597 202.032>
VStem: 23 77<42.397 124.173> 35 71<257.789 315.294> 227 61<49.9713 176.996 192.023 320.266>
LayerCount: 3
Fore
SplineSet
277 -11 m 0xd8
 253 -11 240 3 234 16 c 0
 225 34 228 43 226 43 c 0
 224 43 220 38 206 29 c 0
 182 14 147 -11 102 -11 c 0
 55 -11 23 21 23 63 c 0xe8
 23 161 139 172 210 193 c 0
 222 196 226 202 226 214 c 2
 226 242 l 2
 226 307 204 340 161 340 c 0
 144 340 134 334 124 330 c 0
 113 325 107 317 106 306 c 0
 103 284 94 249 59 249 c 0
 42 249 35 262 35 276 c 0
 35 294 51 313 72 328 c 0
 105 351 155 373 194 373 c 0
 245 373 289 358 289 263 c 0
 289 191 288 116 288 89 c 0
 288 52 288 32 310 32 c 0
 316 32 324 34 334 39 c 0
 342 43 348 39 348 33 c 0
 348 12 310 -11 277 -11 c 0xd8
100 89 m 0
 100 50 125 33 154 33 c 0
 167 33 181 37 194 43 c 0
 220 56 227 73 227 77 c 2
 227 157 l 2
 227 172 226 177 216 177 c 0
 212 177 197 174 190 172 c 0
 159 164 100 148 100 89 c 0
EndSplineSet
EndChar

StartChar: b
Encoding: 98 98 1
Width: 467
VWidth: 0
Flags: W
HStem: -12 29<187.083 285.144> -4 21G<82 92.5> 336 32<195.487 285.542>
VStem: 28 113<583.906 632.44> 69 69<211.833 314.695 324.003 586.531> 76 63<53.9688 315.232 324.003 542.937> 357 77<95.7928 269.75>
LayerCount: 3
Fore
SplineSet
265 368 m 0x72
 352 368 434 304 434 187 c 0
 434 114 386 -12 240 -12 c 0xb2
 193 -12 163 12 116 12 c 0
 103 12 98 -4 87 -4 c 0
 77 -4 76 7 76 19 c 2
 76 206 l 2x66
 76 331 73 419 69 549 c 0x6a
 69 561 62 572 56 578 c 2
 34 599 l 2
 30 603 28 607 28 612 c 0
 28 620 33 627 40 629 c 0
 67 638 124 662 129 662 c 0
 142 662 141 648 141 638 c 2x72
 141 638 138 613 138 341 c 0x6a
 138 328 137 324 141 324 c 0
 143 324 147 327 154 331 c 0
 177 344 219 368 265 368 c 0x72
357 182 m 0
 357 266 307 336 224 336 c 0
 197 336 170 322 154 311 c 0
 141 302 139 296 139 287 c 2
 139 112 l 2xa6
 139 61 185 17 237 17 c 0
 315 17 357 104 357 182 c 0
EndSplineSet
EndChar

StartChar: c
Encoding: 99 99 2
Width: 397
VWidth: 0
Flags: W
HStem: -11 48<177.48 312.967> 344 36<169.826 287.338>
VStem: 26 83<112.579 266.31>
LayerCount: 3
Fore
SplineSet
244 380 m 0
 282 380 368 368 368 332 c 0
 368 309 350 300 338 300 c 0
 312 300 297 322 282 330 c 0
 262 341 247 344 229 344 c 0
 152 344 109 275 109 198 c 0
 109 107 173 37 243 37 c 0
 314 37 335 74 351 74 c 0
 361 74 363 67 363 61 c 0
 363 53 353 37 338 26 c 0
 304 1 263 -11 222 -11 c 0
 111 -11 26 70 26 178 c 0
 26 292 126 380 244 380 c 0
EndSplineSet
EndChar

StartChar: d
Encoding: 100 100 3
Width: 469
VWidth: 0
Flags: HW
HStem: -9 37<162.439 265.716> 345 21<191.755 283.86>
VStem: 30 78<84.8207 251.299> 326 80<401.032 591.938> 332 65<33.0123 51 58.3917 277.891>
LayerCount: 3
Fore
SplineSet
30 161 m 0xf0
 30 276 123 366 226 366 c 0
 254 366 280 359 304 348 c 0
 319 341 324 335 326 335 c 0
 330 335 330 345 330 357 c 2
 330 372 l 2
 330 420 328 503 326 560 c 0
 326 573 323 582 306 591 c 2
 278 606 l 2
 266 612 271 624 279 626 c 0
 323 639 343 645 380 657 c 0
 383 658 393 661 396 661 c 0
 408 661 406 645 406 638 c 0xf0
 406 614 397 513 397 57 c 0xe8
 397 50 397 33 406 33 c 0
 411 33 434 44 437 44 c 0
 444 44 444 32 444 26 c 0
 444 23 443 20 441 19 c 0
 406 3 350 -24 339 -24 c 0
 329 -24 328 -13 328 -2 c 2
 328 43 l 2
 328 48 327 50 319 43 c 0
 301 28 253 -9 191 -9 c 0
 87 -9 30 62 30 161 c 0xf0
235 345 m 0
 156 345 108 256 108 180 c 0
 108 106 138 28 225 28 c 0
 276 28 332 63 332 95 c 2
 332 220 l 2xe8
 332 299 308 345 235 345 c 0
EndSplineSet
Layer: 2
SplineSet
30 161 m 4xf0
 30 276 123 366 226 366 c 4
 254 366 280 359 304 348 c 4
 319 341 324 335 326 335 c 4
 330 335 330 345 330 357 c 6
 330 372 l 6
 330 420 328 503 326 560 c 4
 326 573 323 582 306 591 c 6
 278 606 l 6
 266 612 271 624 279 626 c 4
 323 639 343 645 380 657 c 4
 383 658 393 661 396 661 c 4
 408 661 406 645 406 638 c 4xf0
 406 614 397 513 397 57 c 4xe8
 397 50 397 33 406 33 c 4
 411 33 434 44 437 44 c 4
 444 44 444 32 444 26 c 4
 444 23 443 20 441 19 c 4
 406 3 350 -24 339 -24 c 4
 329 -24 328 -13 328 -2 c 6
 328 51 l 5
 328 51 269 -9 191 -9 c 4
 87 -9 30 62 30 161 c 4xf0
235 345 m 4
 156 345 108 256 108 180 c 4
 108 106 138 28 225 28 c 4
 276 28 332 63 332 95 c 6
 332 220 l 6xe8
 332 299 308 345 235 345 c 4
EndSplineSet
EndChar

StartChar: e
Encoding: 101 101 4
Width: 382
VWidth: 0
Flags: W
HStem: -9 48<158.88 291.523> 246 20<107.087 273> 357 25<165.922 259.647>
VStem: 23 75<106.236 244.532> 282 71<260.5 326.553>
LayerCount: 3
Fore
SplineSet
221 382 m 0
 300 382 353 320 353 266 c 0
 353 255 353 244 343 244 c 0
 266 244 157 246 114 246 c 0
 98 246 98 225 98 201 c 0
 98 117 141 39 228 39 c 0
 280 39 310 55 341 90 c 0
 345 94 348 95 351 95 c 0
 358 95 360 90 360 84 c 0
 360 78 358 72 356 69 c 0
 330 28 271 -9 206 -9 c 0
 85 -9 23 79 23 186 c 0
 23 291 111 382 221 382 c 0
125 266 m 2
 240 266 l 2
 272 266 282 279 282 306 c 0
 282 342 246 357 214 357 c 0
 144 357 107 293 107 275 c 0
 107 269 109 266 125 266 c 2
EndSplineSet
EndChar

StartChar: f
Encoding: 102 102 5
Width: 319
VWidth: 0
Flags: HWO
HStem: -2 38<162.419 266.988> 334 36<35.8934 85.9881 153.107 283.999> 625 46<170.813 264.706>
VStem: 86 66<44.2904 331.901 370.121 557.907>
LayerCount: 3
Fore
SplineSet
23 17 m 0
 23 26 32 32 41 35 c 0
 58 40 84 39 84 64 c 2
 84 313 l 2
 84 332 78 332 61 332 c 2
 49 332 l 2
 37 332 30 336 30 344 c 0
 30 353 37 358 47 362 c 2
 68 370 l 2
 80 375 84 376 84 387 c 2
 84 399 l 2
 84 569 140 672 232 672 c 0
 257 672 310 667 310 633 c 0xd8
 310 612 299 602 277 602 c 0
 248 602 232 626 210 626 c 0
 195 626 184 618 175 608 c 0
 155 587 155 551 155 502 c 2
 155 388 l 2
 155 372 155 371 171 371 c 2
 273 371 l 2
 282 371 283 366 283 353 c 0
 283 341 282 335 273 335 c 2
 178 335 l 2xb8
 160 335 155 335 155 319 c 2
 155 90 l 2
 155 39 169 37 222 37 c 2
 235 37 l 2
 254 37 264 32 264 16 c 0
 264 6 259 -2 232 -2 c 0
 196 -2 154 0 118 0 c 0
 93 0 62 -2 49 -2 c 0
 30 -2 23 4 23 17 c 0
EndSplineSet
Layer: 2
SplineSet
233 671 m 4
 257 671 309 664 309 631 c 4
 309 613 297 602 277 602 c 4
 263 602 253 606 245 611 c 4
 233 618 225 625 210 625 c 4
 167 625 153 585 153 523 c 6
 153 385 l 6
 153 370 153 370 168 370 c 6
 270 370 l 6
 283 370 284 369 284 352 c 4
 284 335 283 334 269 334 c 6
 168 334 l 6
 153 334 152 334 152 320 c 4
 152 242 153 163 155 86 c 4
 156 38 181 36 237 36 c 4
 252 36 267 33 267 17 c 4
 267 -2 250 -2 227 -2 c 4
 195 -2 160 0 122 0 c 4
 97 0 70 -2 50 -2 c 4
 27 -2 21 5 21 17 c 4
 21 45 84 29 84 61 c 4
 84 138 86 263 86 315 c 4
 86 331 82 332 68 332 c 6
 56 332 l 6
 38 332 30 332 30 342 c 4
 30 352 48 362 72 369 c 4
 85 373 86 371 86 381 c 4
 86 469 95 671 233 671 c 4
EndSplineSet
EndChar

StartChar: g
Encoding: 103 103 6
Width: 482
VWidth: 0
Flags: W
HStem: -300 40<153.972 316.899> -65 67<145.041 375.653> 100 23<179.002 269.939> 309 46<373.282 476> 318 33<367.002 453.718> 353 28<177.606 278.065>
VStem: 43 70<-224.357 -143.435> 57 71<4.88879 48.1197 178.172 307.103> 321 62<168.375 316.033> 391 66<-182.762 -81.016>
LayerCount: 3
Fore
SplineSet
43 -199 m 0xeac0
 43 -157 92 -106 119 -81 c 0
 130 -70 137 -67 137 -65 c 0
 137 -63 130 -64 116 -59 c 0
 92 -50 57 -30 57 11 c 0
 57 43 111 72 143 91 c 0
 154 97 159 100 159 103 c 0
 159 108 148 111 133 122 c 0
 102 143 60 184 60 245 c 0
 60 328 148 381 227 381 c 0
 312 381 325 351 342 351 c 0xedc0
 378 351 449 355 454 355 c 0
 470 355 476 355 476 339 c 2
 476 320 l 2
 476 310 466 309 458 309 c 0xf1c0
 448 309 378 318 373 318 c 0
 370 318 367 317 367 315 c 0
 367 312 372 304 376 291 c 0
 380 278 383 263 383 250 c 0
 383 150 307 100 237 100 c 0
 224 100 211 101 198 101 c 0
 191 101 185 100 179 96 c 0
 149 76 128 58 128 30 c 0xe9c0
 128 11 144 2 169 2 c 0
 190 2 264 5 306 5 c 0
 377 5 457 -6 457 -94 c 0
 457 -236 322 -300 207 -300 c 0
 133 -300 43 -274 43 -199 c 0xeac0
230 -260 m 0
 314 -260 391 -213 391 -120 c 0
 391 -86 361 -69 328 -67 c 0
 280 -65 228 -65 178 -65 c 0
 173 -65 169 -65 157 -75 c 0
 129 -98 113 -137 113 -167 c 0xe2c0
 113 -217 152 -260 230 -260 c 0
128 237 m 0xe5c0
 128 174 161 123 225 123 c 0
 296 123 321 182 321 244 c 0
 321 304 290 353 230 353 c 0
 163 353 128 302 128 237 c 0xe5c0
EndSplineSet
EndChar

StartChar: h
Encoding: 104 104 7
Width: 194
VWidth: 0
Flags: W
HStem: 212 100<55.4375 138.562>
VStem: 47 100<220.438 303.562>
LayerCount: 3
Fore
SplineSet
47 262 m 0
 47 290 69 312 97 312 c 0
 125 312 147 290 147 262 c 0
 147 234 125 212 97 212 c 0
 69 212 47 234 47 262 c 0
EndSplineSet
EndChar

StartChar: i
Encoding: 105 105 8
Width: 233
VWidth: 0
Flags: W
HStem: -2 37<24.2053 79.4273 157.255 213.261> 513 94<78.3939 157.606>
VStem: 71 94<520.394 599.606> 84 68<41.0467 313.453>
LayerCount: 3
Fore
SplineSet
50 347 m 0xd0
 78 357 121 377 132 383 c 0
 137 385 141 387 145 387 c 0
 149 387 152 385 152 380 c 2
 152 81 l 2
 152 49 164 42 184 35 c 0
 206 27 214 24 214 11 c 0
 214 5 209 -2 201 -2 c 0
 178 -2 147 0 120 0 c 0
 98 0 69 -2 51 -2 c 0
 39 -2 24 -1 24 14 c 0
 24 32 42 32 55 38 c 0
 71 45 84 44 84 80 c 2
 84 292 l 2
 84 301 75 307 69 310 c 2
 43 323 l 2
 38 325 36 329 36 332 c 0
 36 338 43 344 50 347 c 0xd0
71 560 m 0xe0
 71 586 92 607 118 607 c 0
 144 607 165 586 165 560 c 0
 165 534 144 513 118 513 c 0
 92 513 71 534 71 560 c 0xe0
EndSplineSet
EndChar

StartChar: j
Encoding: 106 106 9
Width: 233
VWidth: 0
Flags: W
HStem: -247 80<-6.04517 56.7741> 513 94<78.3939 157.606>
VStem: 71 94<520.394 599.606> 83 70<-128.625 313.547>
LayerCount: 3
Fore
SplineSet
83 44 m 2xd0
 83 272 l 2
 83 299 70 309 64 312 c 2
 43 323 l 2
 38 326 36 331 36 334 c 0
 36 340 43 345 50 347 c 0
 83 356 114 371 131 380 c 0
 136 383 143 387 147 387 c 0
 151 387 156 385 156 380 c 0
 156 361 153 244 153 170 c 2
 153 -32 l 2
 153 -98 131 -136 103 -175 c 0
 73 -216 37 -247 9 -247 c 4
 -9 -247 -9 -229 -9 -214 c 16
 -9 -198 -4 -167 7 -167 c 2
 43 -167 l 2
 59 -167 83 -135 83 44 c 2xd0
71 560 m 0xe0
 71 586 92 607 118 607 c 0
 144 607 165 586 165 560 c 0
 165 534 144 513 118 513 c 0
 92 513 71 534 71 560 c 0xe0
EndSplineSet
EndChar

StartChar: k
Encoding: 107 107 10
Width: 194
VWidth: 0
Flags: W
HStem: 212 100<55.4375 138.562>
VStem: 47 100<220.438 303.562>
LayerCount: 3
Fore
SplineSet
47 262 m 0
 47 290 69 312 97 312 c 0
 125 312 147 290 147 262 c 0
 147 234 125 212 97 212 c 0
 69 212 47 234 47 262 c 0
EndSplineSet
EndChar

StartChar: l
Encoding: 108 108 11
Width: 194
VWidth: 0
Flags: W
HStem: 212 100<55.4375 138.562>
VStem: 47 100<220.438 303.562>
LayerCount: 3
Fore
SplineSet
47 262 m 0
 47 290 69 312 97 312 c 0
 125 312 147 290 147 262 c 0
 147 234 125 212 97 212 c 0
 69 212 47 234 47 262 c 0
EndSplineSet
EndChar

StartChar: m
Encoding: 109 109 12
Width: 194
VWidth: 0
Flags: W
HStem: 212 100<55.4375 138.562>
VStem: 47 100<220.438 303.562>
LayerCount: 3
Fore
SplineSet
47 262 m 0
 47 290 69 312 97 312 c 0
 125 312 147 290 147 262 c 0
 147 234 125 212 97 212 c 0
 69 212 47 234 47 262 c 0
EndSplineSet
EndChar

StartChar: n
Encoding: 110 110 13
Width: 511
VWidth: 0
Flags: HW
LayerCount: 3
Fore
SplineSet
29 12 m 4
 29 23 39 26 50 30 c 0
 68 37 82 41 82 69 c 2
 82 288 l 2
 82 296 73 303 65 311 c 2
 52 324 l 2
 43 333 41 335 55 343 c 2
 142 391 l 2
 146 393 151 396 154 396 c 0
 157 396 159 394 159 386 c 0
 159 374 156 335 156 324 c 0
 156 311 171 321 176 325 c 0
 211 352 258 375 314 375 c 0
 413 375 426 307 426 247 c 2
 426 64 l 2
 426 40 439 35 454 31 c 0
 468 27 482 26 482 12 c 0
 482 0 474 -2 463 -2 c 0
 455 -2 401 0 393 0 c 0
 365 0 327 -2 310 -2 c 0
 299 -2 293 1 293 13 c 0
 293 24 305 27 319 31 c 0
 351 40 355 50 355 88 c 2
 355 240 l 2
 355 308 313 334 263 334 c 0
 237 334 209 323 186 308 c 0
 170 297 153 290 153 266 c 2
 153 94 l 2
 153 52 153 45 162 40 c 0
 172 34 194 32 207 28 c 0
 215 26 220 21 220 13 c 0
 220 0 206 -2 188 -2 c 0
 173 -2 137 0 116 0 c 0
 95 0 67 -2 51 -2 c 0
 39 -2 29 0 29 12 c 4
EndSplineSet
Layer: 2
SplineSet
163 391 m 4
 163 383 157 348 156 329 c 4
 155 319 153 307 164 316 c 4
 190 337 251 377 313 377 c 4
 391 377 422 332 424 269 c 4
 426 187 424 74 429 48 c 4
 434 20 484 35 484 12 c 4
 484 3 477 -2 467 -2 c 4
 460 -2 397 0 390 0 c 4
 363 0 326 -2 309 -2 c 4
 299 -2 293 1 293 12 c 4
 293 22 306 26 319 30 c 4
 331 34 343 39 347 42 c 4
 356 49 357 75 357 104 c 6
 357 237 l 6
 357 294 328 335 278 335 c 4
 238 335 213 324 183 305 c 4
 168 295 152 287 152 264 c 6
 152 73 l 6
 152 56 152 39 168 35 c 4
 184 30 222 31 222 12 c 4
 222 0 208 -2 190 -2 c 4
 171 -2 148 0 128 0 c 4
 103 0 74 -2 55 -2 c 4
 37 -2 28 0 28 15 c 4
 28 30 45 29 56 32 c 4
 75 37 82 46 83 64 c 4
 84 86 84 117 84 133 c 6
 84 182 l 6
 84 214 84 244 82 285 c 4
 81 296 82 300 69 309 c 6
 53 320 l 6
 42 328 43 336 56 342 c 4
 86 355 122 377 146 393 c 4
 149 395 153 398 157 398 c 4
 160 398 163 396 163 391 c 4
  Spiro
    163 391 o
    161.41 375.614 o
    158.256 351.716 o
    156 329 o
    155.185 319.194 o
    156.819 313.146 o
    164 316 o
    200.362 341.121 o
    252.65 365.872 o
    313 377 o
    375.951 363.027 o
    411.69 324.952 o
    424 269 o
    425.074 181.127 o
    425.927 98.5588 o
    429 48 o
    445.457 31.3417 o
    470.875 25.3267 o
    484 12 o
    481.819 4.37659 o
    475.844 -0.373591 o
    467 -2 o
    445.513 -1.48237 o
    411.487 -0.51763 o
    390 0 o
    360.808 -0.51763 o
    331.529 -1.48237 o
    309 -2 o
    300.415 -0.817369 o
    294.922 3.48771 o
    293 12 o
    296.845 20.2156 o
    306.493 25.7824 o
    319 30 o
    330.693 34.2179 o
    340.638 38.4484 o
    347 42 o
    353.588 54.7229 o
    356.409 76.6178 o
    357 104 [
    357 237 ]
    347.648 287.697 o
    320.669 322.284 o
    278 335 o
    242.291 331.451 o
    212.045 321.209 o
    183 305 o
    168.31 295.048 o
    156.695 282.615 o
    152 264 [
    152 73 ]
    152.591 56.497 o
    156.748 42.8406 o
    168 35 o
    189.087 31.0409 o
    211.574 25.2877 o
    222 12 o
    217.712 3.04326 o
    206.282 -1.03926 o
    190 -2 o
    169.947 -1.48237 o
    148.72 -0.51763 o
    128 0 o
    102.211 -0.51763 o
    76.7907 -1.48237 o
    55 -2 o
    40.012 -0.92848 o
    30.994 3.93348 o
    28 15 o
    32.806 25.4008 o
    43.8643 29.5951 o
    56 32 o
    71.2106 38.5103 o
    79.7834 48.8274 o
    83 64 o
    83.7033 88.0858 o
    83.9631 112.912 o
    84 133 [
    84 182 ]
    83.9261 213.783 o
    83.4065 247.22 o
    82 285 o
    81.0755 294.103 o
    77.9205 301.229 o
    69 309 [
    53 320 ]
    46.003 327.918 o
    47.005 335.415 o
    56 342 o
    87.3013 357.427 o
    118.697 375.574 o
    146 393 o
    149.293 395.183 o
    153.041 397.15 o
    157 398 o
    159.886 397.298 o
    162.113 395.034 o
    0 0 z
  EndSpiro
EndSplineSet
EndChar

StartChar: o
Encoding: 111 111 14
Width: 432
VWidth: 0
Flags: WO
HStem: -12 34<161.602 270.649> 345 29<166.467 261.418>
VStem: 29 72<85.8685 272.067> 326 71<85.0435 283.578>
LayerCount: 3
Fore
SplineSet
101 182 m 24
 101 105 136 22 216 22 c 0
 302 22 326 110 326 188 c 0
 326 270 285 345 215 345 c 0
 139 345 101 260 101 182 c 24
29 181 m 0
 29 297 118 374 218 374 c 0
 325 374 397 303 397 182 c 0
 397 65 320 -12 212 -12 c 0
 97 -12 29 60 29 181 c 0
EndSplineSet
EndChar

StartChar: p
Encoding: 112 112 15
Width: 194
VWidth: 0
Flags: W
HStem: 212 100<55.4375 138.562>
VStem: 47 100<220.438 303.562>
LayerCount: 3
Fore
SplineSet
47 262 m 0
 47 290 69 312 97 312 c 0
 125 312 147 290 147 262 c 0
 147 234 125 212 97 212 c 0
 69 212 47 234 47 262 c 0
EndSplineSet
EndChar

StartChar: q
Encoding: 113 113 16
Width: 194
VWidth: 0
Flags: W
HStem: 212 100<55.4375 138.562>
VStem: 47 100<220.438 303.562>
LayerCount: 3
Fore
SplineSet
47 262 m 0
 47 290 69 312 97 312 c 0
 125 312 147 290 147 262 c 0
 147 234 125 212 97 212 c 0
 69 212 47 234 47 262 c 0
EndSplineSet
EndChar

StartChar: r
Encoding: 114 114 17
Width: 332
VWidth: 0
Flags: W
HStem: -2 35<155.793 233.922> 311 63<201.5 301.695>
VStem: 84 66<38.4679 287.978 293.013 304.234>
LayerCount: 3
Fore
SplineSet
273 374 m 0
 297 374 326 365 326 338 c 0
 326 310 305 300 282 300 c 0
 254 300 237 311 212 311 c 0
 191 311 175 294 163 277 c 0
 151 260 150 253 150 223 c 2
 150 74 l 2
 150 38 173 35 208 33 c 0
 222 32 234 30 234 14 c 0
 234 8 228 -2 211 -2 c 0
 188 -2 147 0 120 0 c 0
 101 0 79 -2 61 -2 c 0
 49 -2 36 -1 36 14 c 0
 36 25 44 29 57 35 c 0
 73 42 84 44 84 80 c 2
 84 282 l 2
 84 291 76 298 69 301 c 2
 50 310 l 2
 42 313 39 317 39 321 c 0
 39 325 43 331 50 335 c 0
 77 350 121 384 132 391 c 0
 136 393 141 396 145 396 c 0
 148 396 152 394 152 387 c 2
 148 320 l 2
 148 311 146 293 149 293 c 0
 153 293 163 303 168 308 c 0
 205 344 225 374 273 374 c 0
EndSplineSet
EndChar

StartChar: s
Encoding: 115 115 18
Width: 311
VWidth: 0
Flags: W
HStem: -8 30<82.0722 183.111> 2 86<25.7375 58.1515> 294 79<219.688 252.903> 350 27<129.943 216.985>
VStem: 43 71<252.82 338.283> 205 65<44.9595 126.863>
LayerCount: 3
Fore
SplineSet
22 64 m 0x4c
 22 76 25 88 36 88 c 0x4c
 47 88 52 79 58 68 c 0
 74 38 90 22 139 22 c 0
 174 22 205 46 205 79 c 0
 205 164 43 175 43 275 c 0
 43 359 119 377 180 377 c 4x9c
 198 377 214 376 232 373 c 0
 250 370 255 352 255 333 c 2
 255 312 l 2
 255 303 255 296 246 294 c 0x2c
 238 292 234 299 227 307 c 2
 209 329 l 2
 198 343 193 350 167 350 c 0
 144 350 114 335 114 303 c 0
 114 214 270 214 270 104 c 0
 270 31 191 -8 121 -8 c 0x9c
 91 -8 63 -6 47 2 c 0
 30 10 22 15 22 64 c 0x4c
EndSplineSet
EndChar

StartChar: t
Encoding: 116 116 19
Width: 318
VWidth: 0
Flags: W
HStem: -10 47<161.702 265.808> 327 37<150.094 295.993>
VStem: 78 66<54.1026 327>
LayerCount: 3
Fore
SplineSet
277 18 m 0
 248 0 206 -10 178 -10 c 0
 128 -10 78 21 78 83 c 0
 78 166 81 304 81 312 c 0
 81 320 81 327 68 327 c 2
 42 327 l 2
 32 327 32 333 32 339 c 0
 32 344 49 358 57 365 c 0
 81 385 110 414 137 439 c 0
 138 440 142 441 143 441 c 0
 147 441 150 434 150 428 c 2
 150 376 l 2
 150 364 151 364 164 364 c 2
 286 364 l 2
 294 364 296 357 296 348 c 0
 296 339 296 327 288 327 c 2
 162 327 l 2
 149 327 146 326 146 315 c 0
 146 303 144 140 144 125 c 0
 144 71 160 37 220 37 c 0
 232 37 255 42 273 53 c 0
 277 55 284 61 292 61 c 0
 298 61 303 56 303 48 c 0
 303 35 290 26 277 18 c 0
EndSplineSet
EndChar

StartChar: u
Encoding: 117 117 20
Width: 194
VWidth: 0
Flags: W
HStem: 212 100<55.4375 138.562>
VStem: 47 100<220.438 303.562>
LayerCount: 3
Fore
SplineSet
47 262 m 0
 47 290 69 312 97 312 c 0
 125 312 147 290 147 262 c 0
 147 234 125 212 97 212 c 0
 69 212 47 234 47 262 c 0
EndSplineSet
EndChar

StartChar: v
Encoding: 118 118 21
Width: 194
VWidth: 0
Flags: W
HStem: 212 100<55.4375 138.562>
VStem: 47 100<220.438 303.562>
LayerCount: 3
Fore
SplineSet
47 262 m 0
 47 290 69 312 97 312 c 0
 125 312 147 290 147 262 c 0
 147 234 125 212 97 212 c 0
 69 212 47 234 47 262 c 0
EndSplineSet
EndChar

StartChar: w
Encoding: 119 119 22
Width: 194
VWidth: 0
Flags: W
HStem: 212 100<55.4375 138.562>
VStem: 47 100<220.438 303.562>
LayerCount: 3
Fore
SplineSet
47 262 m 0
 47 290 69 312 97 312 c 0
 125 312 147 290 147 262 c 0
 147 234 125 212 97 212 c 0
 69 212 47 234 47 262 c 0
EndSplineSet
EndChar

StartChar: x
Encoding: 120 120 23
Width: 194
VWidth: 0
Flags: W
HStem: 212 100<55.4375 138.562>
VStem: 47 100<220.438 303.562>
LayerCount: 3
Fore
SplineSet
47 262 m 0
 47 290 69 312 97 312 c 0
 125 312 147 290 147 262 c 0
 147 234 125 212 97 212 c 0
 69 212 47 234 47 262 c 0
EndSplineSet
EndChar

StartChar: y
Encoding: 121 121 24
Width: 194
VWidth: 0
Flags: W
HStem: 212 100<55.4375 138.562>
VStem: 47 100<220.438 303.562>
LayerCount: 3
Fore
SplineSet
47 262 m 0
 47 290 69 312 97 312 c 0
 125 312 147 290 147 262 c 0
 147 234 125 212 97 212 c 0
 69 212 47 234 47 262 c 0
EndSplineSet
EndChar

StartChar: z
Encoding: 122 122 25
Width: 194
VWidth: 0
Flags: W
HStem: 212 100<55.4375 138.562>
VStem: 47 100<220.438 303.562>
LayerCount: 3
Fore
SplineSet
47 262 m 0
 47 290 69 312 97 312 c 0
 125 312 147 290 147 262 c 0
 147 234 125 212 97 212 c 0
 69 212 47 234 47 262 c 0
EndSplineSet
EndChar

StartChar: zero
Encoding: 48 48 52
Width: 194
VWidth: 0
Flags: W
HStem: 212 100<55.4375 138.562>
VStem: 47 100<220.438 303.562>
LayerCount: 3
Fore
SplineSet
47 262 m 0
 47 290 69 312 97 312 c 0
 125 312 147 290 147 262 c 0
 147 234 125 212 97 212 c 0
 69 212 47 234 47 262 c 0
EndSplineSet
EndChar

StartChar: one
Encoding: 49 49 53
Width: 194
VWidth: 0
Flags: W
HStem: 212 100<55.4375 138.562>
VStem: 47 100<220.438 303.562>
LayerCount: 3
Fore
SplineSet
47 262 m 0
 47 290 69 312 97 312 c 0
 125 312 147 290 147 262 c 0
 147 234 125 212 97 212 c 0
 69 212 47 234 47 262 c 0
EndSplineSet
EndChar

StartChar: two
Encoding: 50 50 54
Width: 194
VWidth: 0
Flags: W
HStem: 212 100<55.4375 138.562>
VStem: 47 100<220.438 303.562>
LayerCount: 3
Fore
SplineSet
47 262 m 0
 47 290 69 312 97 312 c 0
 125 312 147 290 147 262 c 0
 147 234 125 212 97 212 c 0
 69 212 47 234 47 262 c 0
EndSplineSet
EndChar

StartChar: three
Encoding: 51 51 55
Width: 194
VWidth: 0
Flags: W
HStem: 212 100<55.4375 138.562>
VStem: 47 100<220.438 303.562>
LayerCount: 3
Fore
SplineSet
47 262 m 0
 47 290 69 312 97 312 c 0
 125 312 147 290 147 262 c 0
 147 234 125 212 97 212 c 0
 69 212 47 234 47 262 c 0
EndSplineSet
EndChar

StartChar: four
Encoding: 52 52 56
Width: 194
VWidth: 0
Flags: W
HStem: 212 100<55.4375 138.562>
VStem: 47 100<220.438 303.562>
LayerCount: 3
Fore
SplineSet
47 262 m 0
 47 290 69 312 97 312 c 0
 125 312 147 290 147 262 c 0
 147 234 125 212 97 212 c 0
 69 212 47 234 47 262 c 0
EndSplineSet
EndChar

StartChar: five
Encoding: 53 53 57
Width: 194
VWidth: 0
Flags: W
HStem: 212 100<55.4375 138.562>
VStem: 47 100<220.438 303.562>
LayerCount: 3
Fore
SplineSet
47 262 m 0
 47 290 69 312 97 312 c 0
 125 312 147 290 147 262 c 0
 147 234 125 212 97 212 c 0
 69 212 47 234 47 262 c 0
EndSplineSet
EndChar

StartChar: six
Encoding: 54 54 58
Width: 194
VWidth: 0
Flags: W
HStem: 212 100<55.4375 138.562>
VStem: 47 100<220.438 303.562>
LayerCount: 3
Fore
SplineSet
47 262 m 0
 47 290 69 312 97 312 c 0
 125 312 147 290 147 262 c 0
 147 234 125 212 97 212 c 0
 69 212 47 234 47 262 c 0
EndSplineSet
EndChar

StartChar: seven
Encoding: 55 55 59
Width: 194
VWidth: 0
Flags: W
HStem: 212 100<55.4375 138.562>
VStem: 47 100<220.438 303.562>
LayerCount: 3
Fore
SplineSet
47 262 m 0
 47 290 69 312 97 312 c 0
 125 312 147 290 147 262 c 0
 147 234 125 212 97 212 c 0
 69 212 47 234 47 262 c 0
EndSplineSet
EndChar

StartChar: eight
Encoding: 56 56 60
Width: 194
VWidth: 0
Flags: W
HStem: 212 100<55.4375 138.562>
VStem: 47 100<220.438 303.562>
LayerCount: 3
Fore
SplineSet
47 262 m 0
 47 290 69 312 97 312 c 0
 125 312 147 290 147 262 c 0
 147 234 125 212 97 212 c 0
 69 212 47 234 47 262 c 0
EndSplineSet
EndChar

StartChar: nine
Encoding: 57 57 61
Width: 194
VWidth: 0
Flags: W
HStem: 212 100<55.4375 138.562>
VStem: 47 100<220.438 303.562>
LayerCount: 3
Fore
SplineSet
47 262 m 0
 47 290 69 312 97 312 c 0
 125 312 147 290 147 262 c 0
 147 234 125 212 97 212 c 0
 69 212 47 234 47 262 c 0
EndSplineSet
EndChar

StartChar: .notdef
Encoding: 65536 -1 63
Width: 500
Flags: W
HStem: 0 50<100 400 100 450> 483 50<100 400 100 100>
VStem: 50 50<50 50 50 483> 400 50<50 483 483 483>
LayerCount: 3
Fore
SplineSet
50 0 m 1
 50 533 l 1
 450 533 l 1
 450 0 l 1
 50 0 l 1
100 50 m 1
 400 50 l 1
 400 483 l 1
 100 483 l 1
 100 50 l 1
EndSplineSet
EndChar
